<mxfile host="app.diagrams.net" agent="Mozilla/5.0 (Windows NT 10.0; Win64; x64) AppleWebKit/537.36 (KHTML, like Gecko) Chrome/135.0.0.0 Safari/537.36" version="26.2.14">
  <diagram name="Page-1" id="OZ4E63vipoFr4zRrkJQ1">
    <mxGraphModel dx="918" dy="498" grid="1" gridSize="10" guides="1" tooltips="1" connect="1" arrows="1" fold="1" page="1" pageScale="1" pageWidth="850" pageHeight="1100" math="0" shadow="0">
      <root>
        <mxCell id="0" />
        <mxCell id="1" parent="0" />
        <mxCell id="GRPcK4sKjmOe3_ng77v8-12" style="edgeStyle=orthogonalEdgeStyle;rounded=0;orthogonalLoop=1;jettySize=auto;html=1;exitX=0.5;exitY=1;exitDx=0;exitDy=0;exitPerimeter=0;entryX=0.5;entryY=0;entryDx=0;entryDy=0;" edge="1" parent="1" source="GRPcK4sKjmOe3_ng77v8-1" target="GRPcK4sKjmOe3_ng77v8-3">
          <mxGeometry relative="1" as="geometry" />
        </mxCell>
        <mxCell id="GRPcK4sKjmOe3_ng77v8-1" value="Start" style="strokeWidth=2;html=1;shape=mxgraph.flowchart.start_1;whiteSpace=wrap;" vertex="1" parent="1">
          <mxGeometry x="285" y="130" width="80" height="40" as="geometry" />
        </mxCell>
        <mxCell id="GRPcK4sKjmOe3_ng77v8-2" value="End" style="strokeWidth=2;html=1;shape=mxgraph.flowchart.start_1;whiteSpace=wrap;" vertex="1" parent="1">
          <mxGeometry x="565" y="510" width="80" height="40" as="geometry" />
        </mxCell>
        <mxCell id="GRPcK4sKjmOe3_ng77v8-14" style="edgeStyle=orthogonalEdgeStyle;rounded=0;orthogonalLoop=1;jettySize=auto;html=1;exitX=0.5;exitY=1;exitDx=0;exitDy=0;entryX=1;entryY=0.75;entryDx=0;entryDy=0;" edge="1" parent="1" source="GRPcK4sKjmOe3_ng77v8-3" target="GRPcK4sKjmOe3_ng77v8-10">
          <mxGeometry relative="1" as="geometry" />
        </mxCell>
        <mxCell id="GRPcK4sKjmOe3_ng77v8-16" style="edgeStyle=orthogonalEdgeStyle;rounded=0;orthogonalLoop=1;jettySize=auto;html=1;exitX=0.5;exitY=1;exitDx=0;exitDy=0;entryX=0.5;entryY=0;entryDx=0;entryDy=0;" edge="1" parent="1" source="GRPcK4sKjmOe3_ng77v8-3" target="GRPcK4sKjmOe3_ng77v8-4">
          <mxGeometry relative="1" as="geometry" />
        </mxCell>
        <mxCell id="GRPcK4sKjmOe3_ng77v8-3" value="Login&lt;div&gt;Password /&amp;nbsp;Biometric&lt;/div&gt;" style="rounded=1;whiteSpace=wrap;html=1;" vertex="1" parent="1">
          <mxGeometry x="267.5" y="200" width="115" height="40" as="geometry" />
        </mxCell>
        <mxCell id="GRPcK4sKjmOe3_ng77v8-4" value="&lt;div&gt;Dashboard&amp;nbsp; &amp;nbsp; &amp;nbsp; &lt;br&gt;&lt;span style=&quot;background-color: transparent; color: light-dark(rgb(0, 0, 0), rgb(255, 255, 255));&quot;&gt;- Info Pinjaman&lt;/span&gt;&lt;/div&gt;" style="rounded=1;whiteSpace=wrap;html=1;" vertex="1" parent="1">
          <mxGeometry x="265" y="310" width="120" height="40" as="geometry" />
        </mxCell>
        <mxCell id="GRPcK4sKjmOe3_ng77v8-24" style="edgeStyle=orthogonalEdgeStyle;rounded=0;orthogonalLoop=1;jettySize=auto;html=1;exitX=0.5;exitY=1;exitDx=0;exitDy=0;entryX=0;entryY=0.5;entryDx=0;entryDy=0;" edge="1" parent="1" source="GRPcK4sKjmOe3_ng77v8-6" target="GRPcK4sKjmOe3_ng77v8-7">
          <mxGeometry relative="1" as="geometry">
            <Array as="points">
              <mxPoint x="325" y="580" />
              <mxPoint x="455" y="580" />
              <mxPoint x="455" y="220" />
            </Array>
          </mxGeometry>
        </mxCell>
        <mxCell id="GRPcK4sKjmOe3_ng77v8-6" value="Ajukan Pinjaman Baru&amp;nbsp;&lt;br&gt;- Jumlah &amp;amp; Tenor" style="rounded=1;whiteSpace=wrap;html=1;" vertex="1" parent="1">
          <mxGeometry x="265" y="500" width="120" height="60" as="geometry" />
        </mxCell>
        <mxCell id="GRPcK4sKjmOe3_ng77v8-7" value="Proses Review oleh Sistem" style="rounded=1;whiteSpace=wrap;html=1;" vertex="1" parent="1">
          <mxGeometry x="545" y="190" width="120" height="60" as="geometry" />
        </mxCell>
        <mxCell id="GRPcK4sKjmOe3_ng77v8-32" style="edgeStyle=orthogonalEdgeStyle;rounded=0;orthogonalLoop=1;jettySize=auto;html=1;exitX=0.5;exitY=1;exitDx=0;exitDy=0;" edge="1" parent="1" source="GRPcK4sKjmOe3_ng77v8-9" target="GRPcK4sKjmOe3_ng77v8-2">
          <mxGeometry relative="1" as="geometry" />
        </mxCell>
        <mxCell id="GRPcK4sKjmOe3_ng77v8-9" value="Notif email &amp;amp; SMS&lt;br&gt;Kirim Notif Penolakan" style="rounded=1;whiteSpace=wrap;html=1;" vertex="1" parent="1">
          <mxGeometry x="465" y="410" width="120" height="60" as="geometry" />
        </mxCell>
        <mxCell id="GRPcK4sKjmOe3_ng77v8-15" style="edgeStyle=orthogonalEdgeStyle;rounded=0;orthogonalLoop=1;jettySize=auto;html=1;exitX=0.5;exitY=0;exitDx=0;exitDy=0;entryX=0;entryY=0.5;entryDx=0;entryDy=0;" edge="1" parent="1" source="GRPcK4sKjmOe3_ng77v8-10" target="GRPcK4sKjmOe3_ng77v8-3">
          <mxGeometry relative="1" as="geometry" />
        </mxCell>
        <mxCell id="GRPcK4sKjmOe3_ng77v8-10" value="Registrasi" style="rounded=1;whiteSpace=wrap;html=1;" vertex="1" parent="1">
          <mxGeometry x="105" y="240" width="110" height="40" as="geometry" />
        </mxCell>
        <mxCell id="GRPcK4sKjmOe3_ng77v8-33" style="edgeStyle=orthogonalEdgeStyle;rounded=0;orthogonalLoop=1;jettySize=auto;html=1;exitX=0.5;exitY=1;exitDx=0;exitDy=0;" edge="1" parent="1" source="GRPcK4sKjmOe3_ng77v8-11">
          <mxGeometry relative="1" as="geometry">
            <mxPoint x="605" y="510" as="targetPoint" />
          </mxGeometry>
        </mxCell>
        <mxCell id="GRPcK4sKjmOe3_ng77v8-11" value="Notif email &amp;amp; SMS&lt;br&gt;Kirim Notif Disetujui" style="rounded=1;whiteSpace=wrap;html=1;" vertex="1" parent="1">
          <mxGeometry x="625" y="410" width="120" height="60" as="geometry" />
        </mxCell>
        <mxCell id="GRPcK4sKjmOe3_ng77v8-17" value="&lt;font style=&quot;font-size: 9px;&quot;&gt;Sudah terdaftar&lt;/font&gt;" style="text;html=1;align=center;verticalAlign=middle;whiteSpace=wrap;rounded=0;" vertex="1" parent="1">
          <mxGeometry x="315" y="270" width="60" height="30" as="geometry" />
        </mxCell>
        <mxCell id="GRPcK4sKjmOe3_ng77v8-18" value="&lt;font style=&quot;font-size: 9px;&quot;&gt;Belum terdaftar&lt;/font&gt;" style="text;html=1;align=center;verticalAlign=middle;whiteSpace=wrap;rounded=0;" vertex="1" parent="1">
          <mxGeometry x="225" y="240" width="60" height="30" as="geometry" />
        </mxCell>
        <mxCell id="GRPcK4sKjmOe3_ng77v8-21" value="&lt;font style=&quot;font-size: 9px;&quot;&gt;Tidak&lt;/font&gt;" style="text;html=1;align=center;verticalAlign=middle;whiteSpace=wrap;rounded=0;" vertex="1" parent="1">
          <mxGeometry x="315" y="470" width="60" height="30" as="geometry" />
        </mxCell>
        <mxCell id="GRPcK4sKjmOe3_ng77v8-23" value="&lt;div&gt;&lt;span style=&quot;font-size: 9px; background-color: transparent; color: light-dark(rgb(0, 0, 0), rgb(255, 255, 255));&quot;&gt;Ya&lt;/span&gt;&lt;/div&gt;&lt;div&gt;&lt;span style=&quot;font-size: 9px; background-color: transparent; color: light-dark(rgb(0, 0, 0), rgb(255, 255, 255));&quot;&gt;&lt;br&gt;&lt;/span&gt;&lt;/div&gt;" style="text;html=1;align=center;verticalAlign=middle;whiteSpace=wrap;rounded=0;" vertex="1" parent="1">
          <mxGeometry x="205" y="400" width="60" height="30" as="geometry" />
        </mxCell>
        <mxCell id="GRPcK4sKjmOe3_ng77v8-27" style="edgeStyle=orthogonalEdgeStyle;rounded=0;orthogonalLoop=1;jettySize=auto;html=1;exitX=0.5;exitY=1;exitDx=0;exitDy=0;exitPerimeter=0;entryX=0.5;entryY=0;entryDx=0;entryDy=0;" edge="1" parent="1" source="GRPcK4sKjmOe3_ng77v8-25" target="GRPcK4sKjmOe3_ng77v8-11">
          <mxGeometry relative="1" as="geometry" />
        </mxCell>
        <mxCell id="GRPcK4sKjmOe3_ng77v8-28" style="edgeStyle=orthogonalEdgeStyle;rounded=0;orthogonalLoop=1;jettySize=auto;html=1;exitX=0.5;exitY=1;exitDx=0;exitDy=0;exitPerimeter=0;entryX=0.5;entryY=0;entryDx=0;entryDy=0;" edge="1" parent="1" source="GRPcK4sKjmOe3_ng77v8-25" target="GRPcK4sKjmOe3_ng77v8-9">
          <mxGeometry relative="1" as="geometry" />
        </mxCell>
        <mxCell id="GRPcK4sKjmOe3_ng77v8-25" value="Pinjaman&amp;nbsp;&lt;div&gt;Disetujui / Tidak?&lt;/div&gt;" style="strokeWidth=2;html=1;shape=mxgraph.flowchart.decision;whiteSpace=wrap;" vertex="1" parent="1">
          <mxGeometry x="545" y="280" width="120" height="100" as="geometry" />
        </mxCell>
        <mxCell id="GRPcK4sKjmOe3_ng77v8-26" style="edgeStyle=orthogonalEdgeStyle;rounded=0;orthogonalLoop=1;jettySize=auto;html=1;exitX=0.5;exitY=1;exitDx=0;exitDy=0;entryX=0.5;entryY=0;entryDx=0;entryDy=0;entryPerimeter=0;" edge="1" parent="1" source="GRPcK4sKjmOe3_ng77v8-7" target="GRPcK4sKjmOe3_ng77v8-25">
          <mxGeometry relative="1" as="geometry" />
        </mxCell>
        <mxCell id="GRPcK4sKjmOe3_ng77v8-29" value="&lt;font style=&quot;font-size: 9px;&quot;&gt;Tidak&lt;/font&gt;" style="text;html=1;align=center;verticalAlign=middle;whiteSpace=wrap;rounded=0;" vertex="1" parent="1">
          <mxGeometry x="515" y="370" width="60" height="30" as="geometry" />
        </mxCell>
        <mxCell id="GRPcK4sKjmOe3_ng77v8-30" value="&lt;div&gt;&lt;span style=&quot;font-size: 9px; background-color: transparent; color: light-dark(rgb(0, 0, 0), rgb(255, 255, 255));&quot;&gt;Ya&lt;/span&gt;&lt;/div&gt;&lt;div&gt;&lt;span style=&quot;font-size: 9px; background-color: transparent; color: light-dark(rgb(0, 0, 0), rgb(255, 255, 255));&quot;&gt;&lt;br&gt;&lt;/span&gt;&lt;/div&gt;" style="text;html=1;align=center;verticalAlign=middle;whiteSpace=wrap;rounded=0;" vertex="1" parent="1">
          <mxGeometry x="615" y="380" width="60" height="30" as="geometry" />
        </mxCell>
        <mxCell id="GRPcK4sKjmOe3_ng77v8-36" style="edgeStyle=orthogonalEdgeStyle;rounded=0;orthogonalLoop=1;jettySize=auto;html=1;exitX=0.5;exitY=1;exitDx=0;exitDy=0;exitPerimeter=0;entryX=0.5;entryY=0;entryDx=0;entryDy=0;" edge="1" parent="1" source="GRPcK4sKjmOe3_ng77v8-34" target="GRPcK4sKjmOe3_ng77v8-6">
          <mxGeometry relative="1" as="geometry" />
        </mxCell>
        <mxCell id="GRPcK4sKjmOe3_ng77v8-40" style="edgeStyle=orthogonalEdgeStyle;rounded=0;orthogonalLoop=1;jettySize=auto;html=1;exitX=0;exitY=0.5;exitDx=0;exitDy=0;exitPerimeter=0;entryX=0.5;entryY=1;entryDx=0;entryDy=0;" edge="1" parent="1" source="GRPcK4sKjmOe3_ng77v8-34" target="GRPcK4sKjmOe3_ng77v8-39">
          <mxGeometry relative="1" as="geometry" />
        </mxCell>
        <mxCell id="GRPcK4sKjmOe3_ng77v8-34" value="Cek apakah ada pinjaman?" style="strokeWidth=2;html=1;shape=mxgraph.flowchart.decision;whiteSpace=wrap;" vertex="1" parent="1">
          <mxGeometry x="275" y="370" width="100" height="100" as="geometry" />
        </mxCell>
        <mxCell id="GRPcK4sKjmOe3_ng77v8-35" style="edgeStyle=orthogonalEdgeStyle;rounded=0;orthogonalLoop=1;jettySize=auto;html=1;exitX=0.5;exitY=1;exitDx=0;exitDy=0;entryX=0.5;entryY=0;entryDx=0;entryDy=0;entryPerimeter=0;" edge="1" parent="1" source="GRPcK4sKjmOe3_ng77v8-4" target="GRPcK4sKjmOe3_ng77v8-34">
          <mxGeometry relative="1" as="geometry" />
        </mxCell>
        <mxCell id="GRPcK4sKjmOe3_ng77v8-41" style="edgeStyle=orthogonalEdgeStyle;rounded=0;orthogonalLoop=1;jettySize=auto;html=1;exitX=0.5;exitY=0;exitDx=0;exitDy=0;entryX=0;entryY=0.5;entryDx=0;entryDy=0;" edge="1" parent="1" source="GRPcK4sKjmOe3_ng77v8-39" target="GRPcK4sKjmOe3_ng77v8-4">
          <mxGeometry relative="1" as="geometry" />
        </mxCell>
        <mxCell id="GRPcK4sKjmOe3_ng77v8-39" value="Notifikasi masih terdapat tagihan pinjaman" style="rounded=1;whiteSpace=wrap;html=1;" vertex="1" parent="1">
          <mxGeometry x="100" y="350" width="120" height="40" as="geometry" />
        </mxCell>
      </root>
    </mxGraphModel>
  </diagram>
</mxfile>
